<svg width="1504" height="548" viewBox="0 0 1504 548" fill="none" xmlns="http://www.w3.org/2000/svg">
<rect x="4" width="1500" height="548" fill="#EFF2F0"/>
<g opacity="0.16">
<mask id="mask0_2_253" style="mask-type:alpha" maskUnits="userSpaceOnUse" x="0" y="4" width="1500" height="543">
<path d="M749.829 275.418C749.829 275.418 749.813 275.413 749.804 275.409C749.804 275.409 749.804 275.413 749.804 275.418C749.804 275.418 749.821 275.418 749.821 275.422L749.821 275.418L749.829 275.418Z" fill="#FCCC00"/>
<path d="M749.82 275.426C749.82 275.426 749.82 275.426 749.82 275.422C749.82 275.422 749.804 275.422 749.804 275.417C749.804 275.426 749.804 275.435 749.804 275.444C749.804 275.457 749.804 275.465 749.804 275.479C749.804 275.479 749.82 275.444 749.828 275.426L749.82 275.426Z" fill="#FCCC00"/>
<path d="M749.829 275.409C749.829 275.409 749.813 275.4 749.804 275.396C749.804 275.4 749.804 275.405 749.804 275.409C749.804 275.409 749.821 275.413 749.829 275.418C749.829 275.418 749.829 275.413 749.829 275.409Z" fill="#FCCC00"/>
<path d="M749.956 275.499C749.956 275.499 749.956 275.504 749.948 275.509C749.948 275.509 749.956 275.509 749.965 275.509C749.965 275.509 749.965 275.509 749.965 275.504L749.956 275.499Z" fill="#FCCC00"/>
<path d="M749.916 275.517C749.916 275.517 749.932 275.517 749.932 275.513C749.932 275.508 749.932 275.504 749.932 275.5C749.932 275.508 749.924 275.513 749.916 275.522L749.916 275.517Z" fill="#FCCC00"/>
<path d="M749.788 275.383C749.788 275.383 749.748 275.383 749.733 275.383C749.748 275.387 749.764 275.396 749.78 275.401C749.78 275.401 749.795 275.396 749.803 275.392C749.803 275.392 749.795 275.387 749.788 275.383Z" fill="#FCCC00"/>
<path d="M749.956 275.49C749.956 275.49 749.948 275.49 749.94 275.49C749.94 275.49 749.94 275.49 749.94 275.495C749.94 275.5 749.94 275.504 749.94 275.509C749.94 275.509 749.94 275.509 749.948 275.509C749.948 275.509 749.948 275.504 749.956 275.5C749.956 275.5 749.956 275.495 749.956 275.49Z" fill="#FCCC00"/>
<path d="M749.916 275.426C749.916 275.414 749.9 275.405 749.9 275.392C749.9 275.392 749.892 275.392 749.884 275.392C749.892 275.405 749.908 275.418 749.916 275.431L749.916 275.426Z" fill="#FCCC00"/>
<path d="M749.932 275.492C749.932 275.492 749.932 275.479 749.932 275.474C749.892 275.474 749.844 275.479 749.804 275.483C749.804 275.492 749.804 275.504 749.804 275.513C749.852 275.504 749.9 275.5 749.948 275.492L749.932 275.492Z" fill="#FCCC00"/>
<path d="M749.805 275.391C749.805 275.391 749.789 275.395 749.78 275.4C749.789 275.4 749.797 275.404 749.805 275.409C749.805 275.404 749.805 275.4 749.805 275.395L749.805 275.391Z" fill="#FCCC00"/>
<path d="M749.869 275.374C749.869 275.374 749.869 275.37 749.869 275.365C749.869 275.365 749.861 275.365 749.852 275.37L749.869 275.37L749.869 275.374Z" fill="#FCCC00"/>
<path d="M749.844 275.37L749.844 275.374L749.853 275.37L749.844 275.37Z" fill="#FCCC00"/>
<path d="M749.868 275.366C749.868 275.366 749.868 275.356 749.86 275.352C749.86 275.356 749.86 275.361 749.86 275.37C749.86 275.37 749.868 275.37 749.876 275.366L749.868 275.366Z" fill="#FCCC00"/>
<path d="M749.893 275.374C749.893 275.374 749.893 275.361 749.884 275.356C749.884 275.356 749.868 275.361 749.868 275.365C749.868 275.365 749.868 275.37 749.868 275.374C749.868 275.374 749.884 275.374 749.893 275.374Z" fill="#FCCC00"/>
<path d="M749.884 275.387C749.884 275.387 749.892 275.387 749.9 275.387C749.9 275.387 749.9 275.379 749.9 275.374C749.9 275.374 749.884 275.374 749.876 275.374C749.876 275.379 749.884 275.383 749.892 275.387L749.884 275.387Z" fill="#FCCC00"/>
<path d="M749.884 275.387C749.884 275.387 749.876 275.379 749.868 275.375L749.852 275.375C749.852 275.379 749.852 275.383 749.852 275.387C749.868 275.387 749.884 275.387 749.899 275.387L749.884 275.387Z" fill="#FCCC00"/>
<path d="M749.804 275.396C749.804 275.396 749.821 275.405 749.829 275.409C749.829 275.4 749.829 275.396 749.837 275.387C749.829 275.387 749.821 275.387 749.813 275.387C749.813 275.387 749.813 275.391 749.813 275.396L749.804 275.396Z" fill="#FCCC00"/>
<path d="M749.845 275.374C749.845 275.374 749.82 275.383 749.812 275.387C749.82 275.387 749.828 275.387 749.837 275.387C749.837 275.383 749.837 275.379 749.837 275.374L749.845 275.374Z" fill="#FCCC00"/>
<path d="M749.813 275.387C749.813 275.387 749.797 275.387 749.789 275.387C749.789 275.387 749.797 275.391 749.805 275.396L749.813 275.387Z" fill="#FCCC00"/>
<path d="M749.932 275.491C749.884 275.5 749.836 275.504 749.789 275.513C749.789 275.526 749.789 275.535 749.789 275.548C749.828 275.535 749.876 275.526 749.916 275.513C749.916 275.509 749.924 275.5 749.932 275.491Z" fill="#FCCC00"/>
<path d="M750.268 275.425C750.268 275.425 750.243 275.425 750.235 275.425C750.235 275.425 750.243 275.43 750.251 275.435C750.251 275.435 750.268 275.435 750.268 275.43L750.268 275.425Z" fill="#FCCC00"/>
<path d="M750.131 275.461C750.131 275.461 750.211 275.439 750.251 275.43C750.251 275.43 750.251 275.426 750.235 275.422C750.203 275.422 750.179 275.413 750.147 275.409C750.116 275.426 750.076 275.448 750.044 275.465C750.068 275.465 750.1 275.465 750.123 275.461L750.131 275.461Z" fill="#FCCC00"/>
<path d="M750.259 275.439C750.259 275.439 750.298 275.435 750.314 275.431C750.298 275.431 750.283 275.426 750.267 275.422C750.267 275.422 750.259 275.422 750.251 275.426C750.251 275.426 750.259 275.435 750.267 275.435L750.259 275.439Z" fill="#FCCC00"/>
<path d="M750.131 275.461C750.131 275.461 750.131 275.461 750.139 275.461C750.179 275.453 750.227 275.448 750.267 275.44C750.267 275.44 750.259 275.431 750.251 275.431C750.211 275.44 750.171 275.453 750.131 275.461Z" fill="#FCCC00"/>
<path d="M750.083 275.4C750.06 275.422 750.028 275.444 750.004 275.465C750.004 275.465 750.004 275.465 750.012 275.465C750.02 275.465 750.028 275.465 750.044 275.465C750.076 275.448 750.115 275.426 750.147 275.409C750.147 275.409 750.139 275.409 750.131 275.409L750.083 275.409L750.083 275.4Z" fill="#FCCC00"/>
<path d="M750.132 275.409C750.132 275.409 750.14 275.409 750.148 275.409C750.148 275.409 750.163 275.4 750.171 275.396C750.148 275.396 750.124 275.396 750.1 275.396C750.1 275.396 750.1 275.396 750.092 275.396C750.092 275.396 750.092 275.396 750.092 275.4L750.14 275.4L750.132 275.409Z" fill="#FCCC00"/>
<path d="M750.092 275.396C750.092 275.396 750.123 275.37 750.147 275.353C750.131 275.34 750.108 275.327 750.092 275.314C750.068 275.34 750.044 275.366 750.028 275.392C750.052 275.392 750.076 275.392 750.1 275.392L750.092 275.396Z" fill="#FCCC00"/>
<path d="M750.083 275.4C750.083 275.4 750.083 275.4 750.083 275.395C750.059 275.395 750.035 275.395 750.012 275.395C750.035 275.395 750.051 275.4 750.075 275.405L750.083 275.4Z" fill="#FCCC00"/>
<path d="M749.956 275.5C749.956 275.5 749.956 275.5 749.956 275.504C749.956 275.504 749.972 275.504 749.98 275.5C749.98 275.5 749.98 275.491 749.972 275.486C749.972 275.486 749.964 275.495 749.956 275.5Z" fill="#FCCC00"/>
<path d="M749.964 275.477C749.964 275.477 749.964 275.482 749.964 275.487C749.964 275.487 749.964 275.487 749.956 275.482L749.964 275.477Z" fill="#FCCC00"/>
<path d="M750.044 275.465C750.044 275.465 750.036 275.47 750.028 275.474C750.052 275.474 750.084 275.465 750.108 275.461C750.084 275.461 750.052 275.461 750.028 275.465L750.044 275.465Z" fill="#FCCC00"/>
<path d="M749.956 275.491C749.956 275.491 749.956 275.496 749.956 275.5C749.956 275.5 749.964 275.491 749.972 275.487L749.956 275.487L749.956 275.491Z" fill="#FCCC00"/>
<path d="M750.004 275.482C750.004 275.482 749.996 275.482 749.988 275.478C749.988 275.478 749.988 275.482 749.98 275.487C749.98 275.487 749.996 275.487 750.004 275.487L750.004 275.482Z" fill="#FCCC00"/>
<path d="M750.036 275.473C750.036 275.473 750.028 275.473 750.02 275.473C750.02 275.473 750.012 275.478 750.004 275.483C750.004 275.483 750.004 275.483 750.012 275.483C750.02 275.483 750.036 275.478 750.044 275.473C750.044 275.473 750.044 275.473 750.036 275.473Z" fill="#FCCC00"/>
<path d="M750.044 275.479C750.044 275.479 750.044 275.479 750.052 275.479C750.076 275.474 750.092 275.465 750.116 275.46C750.092 275.46 750.06 275.469 750.036 275.474L750.044 275.479Z" fill="#FCCC00"/>
<path d="M750.004 275.483C750.004 275.483 750.004 275.483 750.012 275.483C750.012 275.483 750.02 275.478 750.028 275.473C750.028 275.473 750.012 275.473 750.004 275.473L750.004 275.483Z" fill="#FCCC00"/>
<path d="M750.004 275.482C750.004 275.482 749.988 275.482 749.98 275.482C749.98 275.482 749.988 275.487 749.996 275.491C749.996 275.491 750.004 275.487 750.012 275.482C750.012 275.482 750.012 275.482 750.004 275.482Z" fill="#FCCC00"/>
<path d="M749.956 275.474L749.956 275.469L749.948 275.469L749.956 275.474Z" fill="#FCCC00"/>
<path d="M749.94 275.465C749.94 275.465 749.94 275.465 749.94 275.47C749.94 275.47 749.94 275.47 749.932 275.465L749.94 275.465Z" fill="#FCCC00"/>
<path d="M749.9 275.443C749.9 275.443 749.916 275.452 749.924 275.457C749.924 275.457 749.908 275.452 749.9 275.448L749.9 275.443Z" fill="#FCCC00"/>
<path d="M749.924 275.448C749.924 275.448 749.9 275.444 749.892 275.439C749.892 275.439 749.892 275.439 749.9 275.444C749.9 275.444 749.916 275.448 749.924 275.452C749.924 275.452 749.924 275.452 749.924 275.448Z" fill="#FCCC00"/>
<path d="M749.956 275.47C749.956 275.47 749.964 275.47 749.972 275.47C749.972 275.47 749.964 275.47 749.956 275.465L749.956 275.47Z" fill="#FCCC00"/>
<path d="M749.94 275.457C749.94 275.457 749.94 275.452 749.94 275.447C749.94 275.447 749.94 275.447 749.932 275.447C749.932 275.447 749.932 275.447 749.932 275.452C749.932 275.452 749.94 275.452 749.949 275.457L749.94 275.457Z" fill="#FCCC00"/>
<path d="M749.948 275.465C749.948 275.465 749.94 275.465 749.932 275.461C749.932 275.461 749.932 275.465 749.932 275.47C749.932 275.47 749.932 275.47 749.94 275.474C749.94 275.474 749.94 275.474 749.94 275.47L749.948 275.465Z" fill="#FCCC00"/>
<path d="M750.02 275.392C750.02 275.392 749.948 275.383 749.908 275.379C749.908 275.379 749.908 275.387 749.908 275.392C749.948 275.392 749.98 275.392 750.012 275.392L750.02 275.392Z" fill="#FCCC00"/>
<path d="M749.924 275.452C749.924 275.452 749.932 275.457 749.94 275.461C749.94 275.461 749.94 275.457 749.94 275.452C749.94 275.452 749.932 275.452 749.924 275.448L749.924 275.452Z" fill="#FCCC00"/>
<path d="M749.78 275.613C749.78 275.613 749.852 275.574 749.884 275.557C749.892 275.544 749.908 275.531 749.916 275.518C749.876 275.531 749.828 275.54 749.788 275.553C749.788 275.574 749.788 275.596 749.788 275.617L749.78 275.613Z" fill="#FCCC00"/>
<path d="M749.78 275.517C749.78 275.517 749.78 275.517 749.788 275.517C749.788 275.509 749.788 275.496 749.788 275.487C749.788 275.5 749.78 275.509 749.772 275.522L749.78 275.517Z" fill="#FCCC00"/>
<path d="M749.94 275.517C749.94 275.517 749.94 275.512 749.948 275.508C749.948 275.508 749.948 275.508 749.94 275.508C749.94 275.508 749.94 275.508 749.94 275.512L749.94 275.517Z" fill="#FCCC00"/>
<path d="M749.844 275.072C749.844 275.072 749.844 275.115 749.844 275.136C749.844 275.141 749.86 275.149 749.868 275.154C749.868 275.128 749.86 275.102 749.852 275.072L749.844 275.072Z" fill="#FCCC00"/>
<path d="M750.044 275.465C750.044 275.465 750.028 275.465 750.012 275.465C750.012 275.465 750.012 275.465 750.004 275.465C750.012 275.465 750.02 275.465 750.028 275.47C750.028 275.47 750.036 275.465 750.044 275.46L750.044 275.465Z" fill="#FCCC00"/>
<path d="M749.884 275.438C749.884 275.438 749.901 275.443 749.901 275.448C749.901 275.448 749.901 275.448 749.892 275.443C749.892 275.443 749.892 275.443 749.884 275.443L749.884 275.438Z" fill="#FCCC00"/>
<path d="M750.036 275.474C750.036 275.474 750.036 275.474 750.036 275.479C750.036 275.479 750.044 275.479 750.052 275.479L750.036 275.474Z" fill="#FCCC00"/>
<path d="M749.932 275.496L749.94 275.491L749.932 275.491L749.932 275.496Z" fill="#FCCC00"/>
<path d="M749.972 275.469C749.972 275.469 749.98 275.469 749.988 275.474C749.988 275.474 749.988 275.469 749.996 275.464C749.988 275.464 749.98 275.464 749.972 275.464L749.972 275.469Z" fill="#FCCC00"/>
<path d="M749.988 275.478C749.988 275.478 749.996 275.478 750.004 275.483C750.004 275.483 750.02 275.483 750.028 275.483C750.028 275.483 750.028 275.483 750.028 275.478C750.028 275.478 750.012 275.478 750.004 275.473C750.004 275.473 750.004 275.473 749.996 275.473C749.996 275.473 749.996 275.478 749.988 275.483L749.988 275.478Z" fill="#FCCC00"/>
<path d="M749.908 275.388C749.908 275.388 749.908 275.388 749.9 275.388C749.9 275.401 749.916 275.409 749.916 275.422C749.916 275.409 749.916 275.401 749.916 275.388L749.908 275.388Z" fill="#FCCC00"/>
<path d="M749.956 275.469C749.956 275.469 749.956 275.474 749.956 275.478C749.956 275.478 749.956 275.478 749.964 275.483C749.964 275.483 749.964 275.478 749.972 275.474C749.972 275.474 749.964 275.474 749.956 275.469C749.956 275.469 749.948 275.469 749.94 275.469L749.956 275.469Z" fill="#FCCC00"/>
<path d="M749.94 275.491C749.94 275.491 749.948 275.491 749.956 275.491C749.956 275.491 749.956 275.483 749.956 275.478C749.956 275.483 749.956 275.487 749.948 275.491L749.94 275.491Z" fill="#FCCC00"/>
<path d="M749.948 275.474C749.948 275.474 749.948 275.483 749.948 275.487L749.964 275.487C749.964 275.487 749.964 275.483 749.964 275.478C749.964 275.478 749.956 275.478 749.948 275.474Z" fill="#FCCC00"/>
<path d="M749.956 275.469C749.956 275.469 749.964 275.469 749.972 275.474C749.972 275.474 749.972 275.469 749.972 275.464L749.956 275.469Z" fill="#FCCC00"/>
<path d="M749.924 275.43C749.924 275.43 749.94 275.444 749.94 275.452C749.94 275.452 749.956 275.452 749.964 275.457C749.98 275.435 750.004 275.413 750.02 275.391C749.988 275.391 749.948 275.391 749.916 275.391C749.916 275.404 749.916 275.413 749.916 275.426C749.916 275.426 749.916 275.43 749.916 275.435L749.924 275.43Z" fill="#FCCC00"/>
<path d="M749.996 275.465C750.02 275.444 750.052 275.422 750.075 275.401C750.052 275.401 750.036 275.397 750.012 275.392C749.996 275.414 749.972 275.435 749.956 275.457C749.964 275.457 749.98 275.461 749.988 275.465L749.996 275.465Z" fill="#FCCC00"/>
<path d="M749.956 275.465C749.956 275.465 749.956 275.465 749.972 275.47C749.98 275.47 749.988 275.47 749.996 275.47C749.988 275.47 749.972 275.465 749.964 275.46C749.964 275.46 749.964 275.465 749.964 275.47L749.956 275.465Z" fill="#FCCC00"/>
<path d="M749.94 275.465C749.94 275.465 749.932 275.46 749.924 275.456C749.924 275.46 749.924 275.465 749.924 275.474C749.924 275.474 749.932 275.474 749.94 275.474C749.94 275.474 749.94 275.474 749.94 275.469L749.94 275.465Z" fill="#FCCC00"/>
<path d="M749.948 275.473C749.948 275.473 749.94 275.473 749.932 275.473C749.932 275.478 749.932 275.487 749.932 275.491C749.932 275.487 749.932 275.482 749.94 275.478C749.94 275.478 749.94 275.478 749.94 275.473L749.948 275.473Z" fill="#FCCC00"/>
<path d="M749.932 275.452C749.932 275.452 749.932 275.439 749.924 275.43C749.924 275.439 749.924 275.444 749.924 275.452C749.924 275.452 749.924 275.452 749.932 275.452Z" fill="#FCCC00"/>
<path d="M749.94 275.457C749.94 275.457 749.948 275.457 749.956 275.461C749.956 275.461 749.956 275.452 749.948 275.448C749.948 275.448 749.948 275.448 749.94 275.448C749.94 275.448 749.94 275.452 749.94 275.457Z" fill="#FCCC00"/>
<path d="M749.924 275.448C749.924 275.448 749.924 275.435 749.924 275.426C749.916 275.413 749.9 275.4 749.892 275.387C749.876 275.387 749.86 275.387 749.844 275.387C749.844 275.396 749.844 275.4 749.836 275.409C749.86 275.422 749.876 275.431 749.9 275.444C749.908 275.444 749.924 275.448 749.932 275.452L749.924 275.448Z" fill="#FCCC00"/>
<path d="M749.94 275.452C749.94 275.452 749.924 275.439 749.924 275.43C749.924 275.439 749.924 275.444 749.932 275.452C749.932 275.452 749.932 275.452 749.94 275.452Z" fill="#FCCC00"/>
<path d="M749.891 275.439C749.891 275.439 749.852 275.418 749.828 275.405C749.828 275.405 749.828 275.409 749.828 275.414C749.844 275.422 749.868 275.427 749.883 275.435C749.883 275.435 749.883 275.435 749.891 275.435L749.891 275.439Z" fill="#FCCC00"/>
<path d="M749.9 275.444C749.9 275.444 749.884 275.439 749.884 275.435C749.868 275.43 749.844 275.426 749.828 275.422C749.828 275.422 749.828 275.422 749.828 275.426C749.82 275.444 749.812 275.461 749.804 275.479C749.844 275.479 749.892 275.474 749.932 275.47C749.932 275.465 749.932 275.461 749.932 275.452C749.924 275.452 749.916 275.444 749.908 275.439L749.9 275.444Z" fill="#FCCC00"/>
<path d="M749.956 275.465C749.956 275.465 749.956 275.461 749.956 275.456C749.956 275.456 749.94 275.456 749.932 275.452C749.932 275.452 749.932 275.461 749.94 275.465L749.956 275.465Z" fill="#FCCC00"/>
<path d="M749.828 275.418L749.828 275.422C749.828 275.422 749.868 275.431 749.883 275.435C749.868 275.427 749.844 275.422 749.828 275.414L749.828 275.418Z" fill="#FCCC00"/>
<path d="M539.854 338.54C608.079 312.537 678.34 294.125 748.719 275.829C748.911 275.751 749.11 275.673 749.302 275.595C599.566 299.211 444.173 320.015 298.913 408.984C244.65 442.616 193.06 486.602 150.781 546.995L274.658 546.995C294.222 508.507 320.073 477.149 348.932 450.557C405.133 398.751 471.468 364.803 539.854 338.54Z" fill="#F7A000"/>
<path d="M263.328 363.503C434.687 290.78 594.38 284.628 749.541 275.495C749.605 275.469 749.669 275.444 749.733 275.418C749.733 275.418 749.749 275.413 749.757 275.409C749.717 275.4 749.677 275.392 749.637 275.379C671.175 272.567 593.271 268.98 510.053 272.939C426.875 276.904 338.137 288.289 242.887 315.903C165.223 338.445 83.1618 372.077 3.26548e-05 421.349L3.8147e-05 546.995L3.11172 546.995C6.82181 542.927 10.5479 538.92 14.2978 534.982C92.2416 453.516 178.635 399.721 263.32 363.503L263.328 363.503Z" fill="#F7A000"/>
<path d="M592.257 373.784C640.185 336.491 694.863 306.043 749.725 275.647C749.741 275.617 749.749 275.587 749.765 275.561C749.414 275.652 749.071 275.743 748.719 275.834C623.813 326.271 488.591 373.359 412.211 486.386C400.267 504.673 389.775 524.684 382.019 547L476.918 547C478.673 535.896 481.21 525.286 484.33 515.105C503.694 455.488 544.577 411.207 592.242 373.788L592.257 373.784Z" fill="#F7A000"/>
<path d="M514.513 250.368C597.611 254.297 673.066 265.15 749.31 275.301C677.965 257.798 606.611 240.36 526.003 228.607C445.131 216.979 354.948 211.069 246.485 220.518C172.994 226.978 90.9251 240.395 2.74357e-05 265.289L3.05176e-05 335.793C84.4544 302.651 164.002 281.136 237.406 267.875C340.251 249.328 431.312 246.456 514.521 250.368L514.513 250.368Z" fill="#F7A000"/>
<path d="M749.773 275.69C749.725 275.751 749.669 275.812 749.621 275.872C730.919 317.272 710.94 358.248 703.704 403.365C696.802 446.693 701.382 493.946 731.892 546.995L820.655 546.995C772.512 496.736 752.398 449.825 745.273 405.782C737.988 360.596 744.595 318.299 749.765 275.69L749.773 275.69Z" fill="#F7A000"/>
<path d="M663.635 397.126C685.281 353.357 717.395 314.612 749.621 275.872C749.645 275.816 749.669 275.764 749.693 275.708C705.451 310.83 661.369 345.974 626.071 387.153C591.029 428.449 564.811 475.802 564.189 535.991C564.204 539.613 564.308 543.283 564.5 546.995L648.18 546.995C631.569 488.951 642.435 440.563 663.627 397.126L663.635 397.126Z" fill="#F7A000"/>
<path d="M749.868 275.327C749.868 275.327 749.884 275.297 749.892 275.279C749.884 275.236 749.876 275.193 749.868 275.149C749.86 275.145 749.852 275.136 749.844 275.132C749.844 275.171 749.836 275.21 749.828 275.249C749.844 275.275 749.852 275.301 749.868 275.327Z" fill="#FCCC00"/>
<path d="M749.924 275.197C749.924 275.197 749.884 275.167 749.86 275.15C749.868 275.193 749.876 275.236 749.884 275.279C749.9 275.253 749.908 275.223 749.924 275.197Z" fill="#FCCC00"/>
<path d="M749.9 275.348C749.948 275.327 750.004 275.31 750.052 275.288C750.012 275.258 749.964 275.228 749.924 275.198C749.908 275.224 749.9 275.254 749.884 275.28C749.884 275.301 749.892 275.327 749.9 275.348Z" fill="#FCCC00"/>
<path d="M749.908 275.379C749.908 275.379 749.98 275.387 750.02 275.392C750.044 275.366 750.067 275.34 750.083 275.314C750.075 275.306 750.06 275.297 750.052 275.293C750.004 275.314 749.948 275.331 749.9 275.353C749.9 275.362 749.9 275.37 749.9 275.383L749.908 275.379Z" fill="#FCCC00"/>
<path d="M749.844 275.132C749.804 275.102 749.764 275.071 749.717 275.041C749.757 275.11 749.788 275.18 749.828 275.249C749.828 275.21 749.836 275.171 749.844 275.132Z" fill="#FCCC00"/>
<path d="M544.377 208.214C620.215 227.381 684.938 251.317 749.621 275.34C749.661 275.344 749.701 275.348 749.733 275.357C693.754 245.563 637.68 215.874 569 189.854C500.088 163.972 418.53 141.769 308.735 131.259C225.063 123.681 125.752 122.464 2.44779e-05 137.185L2.72558e-05 200.737C104.106 181.146 192.853 174.695 270.27 174.612C381.118 174.95 468.325 189.187 544.377 208.214Z" fill="#F7A000"/>
<path d="M361.626 92.0855C569.742 133.55 656.47 206.954 749.334 274.764C715.656 236.561 681.754 198.427 633.89 161.394C585.523 124.262 523.003 88.2427 427.601 57.7256C353.559 34.0363 259.483 14.0858 130.244 4.00442L1.86823e-05 4.00443L2.15917e-05 70.5624C157.459 62.8681 271.02 74.6348 361.626 92.0811L361.626 92.0855Z" fill="#F7A000"/>
<path d="M749.828 275.249C749.788 275.179 749.757 275.11 749.717 275.041C749.589 274.95 749.461 274.855 749.334 274.764C749.493 274.946 749.653 275.127 749.82 275.309C749.82 275.288 749.82 275.266 749.82 275.249L749.828 275.249Z" fill="#FCCC00"/>
<path d="M985.566 300.571C902.317 296.607 826.767 285.677 750.411 275.444C750.371 275.444 750.323 275.448 750.283 275.452C750.339 275.491 750.395 275.535 750.451 275.574C821.908 293.107 893.341 310.583 974.053 322.363C1054.9 334 1145.07 339.918 1253.52 330.473C1327.01 324.018 1409.07 310.605 1500 285.716L1500 215.207C1415.55 248.345 1336.01 269.855 1262.61 283.112C1159.78 301.65 1068.74 304.509 985.566 300.571Z" fill="#F7A000"/>
<path d="M836.301 153.843C814.607 197.674 782.421 236.461 750.131 275.257C750.219 275.223 750.307 275.188 750.395 275.149C794.597 240.066 838.623 204.956 873.889 163.829C908.931 122.542 935.157 75.1937 935.787 15.0086C935.771 11.3868 935.676 7.72161 935.476 4.00878L851.78 4.00879C868.383 62.045 857.493 110.42 836.293 153.848L836.301 153.843Z" fill="#F7A000"/>
<path d="M907.726 177.216C860.07 214.297 805.735 244.61 751.177 274.837C876.274 224.591 1011.35 177.498 1087.77 64.6574C1099.74 46.3575 1110.25 26.3334 1118 4.00874L1023.06 4.00875C1021.3 15.1126 1018.77 25.7225 1015.65 35.9035C996.282 95.521 955.391 139.802 907.726 177.216Z" fill="#F7A000"/>
<path d="M749.844 275.071C749.844 275.097 749.852 275.123 749.86 275.154C749.884 275.171 749.9 275.184 749.924 275.201C768.746 233.771 788.868 192.774 796.161 147.596C803.11 104.294 798.562 57.0542 768.068 4.01318L679.297 4.01318C727.416 54.2642 747.507 101.166 754.576 145.192C761.796 190.317 755.134 232.549 749.844 275.076L749.844 275.071Z" fill="#F7A000"/>
<path d="M960.138 212.456C891.609 238.571 821.038 257.027 750.347 275.405C750.387 275.405 750.427 275.405 750.467 275.405C900.274 251.78 1055.74 231.02 1201.09 142.007C1255.34 108.375 1306.93 64.3888 1349.21 4.00013L1225.33 4.00014C1205.75 42.4888 1179.91 73.8463 1151.05 100.434C1094.86 152.24 1028.52 186.184 960.138 212.447L960.138 212.456Z" fill="#F7A000"/>
<path d="M749.717 275.041C749.757 275.071 749.796 275.101 749.844 275.132C749.844 275.11 749.844 275.088 749.844 275.067C733.057 190.867 721.704 104.225 587.901 11.2394C584.406 8.83056 580.816 6.41748 577.146 4.00436L441.556 4.00436C464.423 12.6517 485.191 21.5417 504.157 30.5617C667.935 109.415 706.249 193.753 749.717 275.036L749.717 275.041Z" fill="#F7A000"/>
<path d="M955.655 342.777C879.913 323.628 815.246 299.718 750.634 275.717C750.834 275.86 751.025 276.003 751.225 276.15C806.884 305.77 862.711 335.274 931 361.151C999.912 387.032 1081.46 409.235 1191.25 419.75C1274.92 427.323 1374.23 428.54 1499.98 413.819L1499.98 350.268C1395.89 369.854 1307.14 376.305 1229.72 376.388C1118.88 376.045 1031.69 361.805 955.647 342.777L955.655 342.777Z" fill="#F7A000"/>
<path d="M1138.29 458.91C930.49 417.419 843.753 344.077 751.225 276.15C750.818 275.933 750.411 275.717 750.004 275.5C750.004 275.5 750.004 275.5 749.996 275.496C783.889 313.945 817.926 352.33 866.102 389.601C914.476 426.734 976.989 462.753 1072.4 493.266C1146.43 516.955 1240.51 536.906 1369.74 546.987L1500 546.987L1500 480.438C1342.52 488.145 1228.95 476.387 1138.31 458.902L1138.29 458.91Z" fill="#F7A000"/>
<path d="M749.964 275.509C749.964 275.509 749.948 275.517 749.94 275.522C766.783 359.846 778.017 446.624 912.059 539.756C915.554 542.165 919.144 544.578 922.822 546.995L1058.42 546.995C1035.55 538.348 1014.78 529.462 995.819 520.438C831.722 441.442 793.536 356.931 749.964 275.513L749.964 275.509Z" fill="#F7A000"/>
<path d="M1236.67 187.488C1065.43 260.142 905.867 266.307 750.81 275.422C829.128 278.299 906.905 281.912 990.003 277.991C1073.16 274.057 1161.88 262.689 1257.12 235.084C1334.79 212.551 1416.84 178.923 1500 129.651L1500 4.00876L1496.89 4.00876C1493.18 8.07685 1489.45 12.0843 1485.7 16.0224C1407.76 97.488 1321.37 151.278 1236.68 187.488L1236.67 187.488Z" fill="#F7A000"/>
<path d="M750.131 275.257C750.131 275.257 750.084 275.279 750.052 275.288C750.06 275.296 750.076 275.305 750.084 275.309C750.1 275.292 750.116 275.275 750.131 275.257Z" fill="#FCCC00"/>
<path d="M750.259 275.439C750.259 275.439 750.267 275.448 750.275 275.452C750.323 275.452 750.363 275.448 750.403 275.444C750.371 275.444 750.339 275.435 750.307 275.431C750.291 275.431 750.267 275.435 750.251 275.439L750.259 275.439Z" fill="#FCCC00"/>
<path d="M749.788 275.548C749.788 275.548 749.772 275.548 749.764 275.553C749.749 275.583 749.741 275.613 749.725 275.639C749.741 275.63 749.764 275.617 749.78 275.609C749.78 275.587 749.78 275.566 749.78 275.544L749.788 275.548Z" fill="#FCCC00"/>
<path d="M749.302 275.591C749.11 275.669 748.911 275.747 748.719 275.825C749.07 275.734 749.413 275.643 749.765 275.552C749.765 275.539 749.772 275.526 749.78 275.513C749.621 275.539 749.461 275.565 749.302 275.587L749.302 275.591Z" fill="#FCCC00"/>
<path d="M749.796 275.513C749.796 275.513 749.796 275.513 749.788 275.513C749.788 275.526 749.78 275.539 749.772 275.552C749.78 275.552 749.788 275.552 749.796 275.548C749.796 275.535 749.796 275.526 749.796 275.513Z" fill="#FCCC00"/>
<path d="M749.876 275.565C749.876 275.565 749.892 275.556 749.9 275.547C749.9 275.547 749.892 275.551 749.884 275.556C749.884 275.556 749.884 275.56 749.884 275.565L749.876 275.565Z" fill="#FCCC00"/>
<path d="M749.796 275.483C749.708 275.488 749.628 275.492 749.541 275.496C749.461 275.526 749.381 275.561 749.302 275.591C749.461 275.565 749.62 275.539 749.78 275.518C749.78 275.505 749.788 275.496 749.796 275.483Z" fill="#FCCC00"/>
<path d="M749.804 275.409C749.804 275.409 749.788 275.405 749.78 275.401C749.78 275.401 749.764 275.405 749.757 275.409C749.772 275.409 749.788 275.418 749.804 275.422C749.804 275.422 749.804 275.418 749.804 275.414L749.804 275.409Z" fill="#FCCC00"/>
<path d="M749.78 275.613C749.78 275.613 749.78 275.634 749.78 275.643C749.812 275.617 749.844 275.591 749.876 275.566C749.876 275.566 749.876 275.561 749.876 275.557C749.844 275.574 749.804 275.596 749.772 275.613L749.78 275.613Z" fill="#FCCC00"/>
<path d="M749.78 275.613C749.78 275.613 749.741 275.635 749.725 275.643C749.717 275.665 749.709 275.686 749.693 275.708C749.717 275.686 749.748 275.665 749.772 275.643C749.772 275.635 749.772 275.622 749.772 275.613L749.78 275.613Z" fill="#FCCC00"/>
<path d="M749.772 275.691C749.804 275.648 749.844 275.609 749.876 275.566C749.844 275.592 749.812 275.618 749.78 275.643C749.78 275.661 749.78 275.673 749.78 275.691L749.772 275.691Z" fill="#FCCC00"/>
<path d="M749.693 275.708C749.669 275.765 749.645 275.816 749.621 275.873C749.669 275.812 749.724 275.752 749.772 275.691C749.772 275.674 749.772 275.661 749.772 275.643C749.748 275.665 749.716 275.687 749.693 275.708Z" fill="#FCCC00"/>
<path d="M749.804 275.444C749.804 275.444 749.804 275.427 749.804 275.418C749.788 275.418 749.772 275.41 749.756 275.405C749.756 275.405 749.74 275.41 749.732 275.414C749.669 275.44 749.605 275.466 749.541 275.491C749.629 275.487 749.708 275.483 749.796 275.479C749.796 275.466 749.796 275.457 749.796 275.444L749.804 275.444Z" fill="#FCCC00"/>
<path d="M749.868 275.366C749.868 275.366 749.884 275.361 749.884 275.357C749.884 275.349 749.876 275.336 749.868 275.327C749.868 275.336 749.86 275.344 749.852 275.353C749.852 275.353 749.852 275.361 749.86 275.366L749.868 275.366Z" fill="#FCCC00"/>
<path d="M749.733 275.383C749.733 275.383 749.677 275.383 749.645 275.383C749.685 275.392 749.725 275.401 749.764 275.413C749.764 275.413 749.78 275.409 749.788 275.405C749.772 275.401 749.756 275.392 749.74 275.388L749.733 275.383Z" fill="#FCCC00"/>
<path d="M749.9 275.348C749.9 275.327 749.892 275.301 749.884 275.28C749.884 275.297 749.868 275.31 749.86 275.327C749.86 275.336 749.868 275.348 749.876 275.357C749.876 275.357 749.892 275.353 749.9 275.348Z" fill="#FCCC00"/>
<path d="M749.892 275.374C749.892 275.374 749.9 275.374 749.908 275.374C749.908 275.366 749.908 275.357 749.908 275.345C749.908 275.345 749.892 275.349 749.884 275.353C749.884 275.357 749.884 275.366 749.892 275.37L749.892 275.374Z" fill="#FCCC00"/>
<path d="M749.852 275.353C749.852 275.353 749.828 275.322 749.812 275.309C749.812 275.326 749.812 275.344 749.812 275.361C749.828 275.361 749.836 275.361 749.852 275.366C749.852 275.361 749.852 275.357 749.852 275.348L749.852 275.353Z" fill="#FCCC00"/>
<path d="M749.868 275.327C749.852 275.301 749.836 275.275 749.828 275.25C749.828 275.271 749.828 275.293 749.828 275.31C749.844 275.323 749.852 275.34 749.868 275.353C749.868 275.344 749.876 275.336 749.884 275.327L749.868 275.327Z" fill="#FCCC00"/>
<path d="M749.788 275.383C749.788 275.383 749.748 275.362 749.732 275.353C749.693 275.349 749.653 275.344 749.621 275.336C749.661 275.349 749.701 275.366 749.74 275.379C749.756 275.379 749.78 275.379 749.796 275.379L749.788 275.383Z" fill="#FCCC00"/>
<path d="M749.613 275.34C749.509 275.327 749.413 275.314 749.31 275.301C749.421 275.327 749.525 275.353 749.636 275.383C749.668 275.383 749.692 275.383 749.724 275.383C749.684 275.37 749.644 275.353 749.605 275.34L749.613 275.34Z" fill="#FCCC00"/>
<path d="M749.812 275.387C749.812 275.387 749.812 275.375 749.812 275.366C749.788 275.366 749.756 275.357 749.733 275.357C749.749 275.366 749.772 275.379 749.788 275.387C749.788 275.387 749.804 275.387 749.812 275.387Z" fill="#FCCC00"/>
<path d="M749.813 275.387C749.813 275.387 749.837 275.378 749.845 275.374C749.829 275.374 749.821 275.374 749.804 275.37C749.804 275.378 749.804 275.383 749.804 275.392L749.813 275.387Z" fill="#FCCC00"/>
<path d="M750.204 275.401C750.204 275.401 750.196 275.392 750.188 275.387C750.188 275.387 750.172 275.396 750.163 275.401C750.18 275.401 750.188 275.401 750.204 275.401Z" fill="#FCCC00"/>
<path d="M750.315 275.431C750.363 275.422 750.411 275.414 750.458 275.409C750.419 275.409 750.379 275.409 750.339 275.409C750.315 275.418 750.283 275.422 750.259 275.431C750.275 275.431 750.291 275.435 750.307 275.439L750.315 275.431Z" fill="#FCCC00"/>
<path d="M750.267 275.426C750.267 275.426 750.323 275.413 750.347 275.404C750.299 275.404 750.251 275.404 750.203 275.4C750.211 275.409 750.227 275.413 750.235 275.422C750.243 275.422 750.259 275.422 750.267 275.422L750.267 275.426Z" fill="#FCCC00"/>
<path d="M750.124 275.466C750.124 275.466 750.084 275.479 750.06 275.483C750.187 275.514 750.323 275.548 750.45 275.578C750.394 275.539 750.339 275.496 750.283 275.458C750.235 275.458 750.187 275.462 750.139 275.466C750.139 275.466 750.131 275.466 750.124 275.466Z" fill="#FCCC00"/>
<path d="M749.9 275.387C749.9 275.387 749.9 275.387 749.908 275.387C749.908 275.387 749.908 275.379 749.908 275.374C749.908 275.374 749.9 275.374 749.892 275.374C749.892 275.374 749.892 275.383 749.892 275.387L749.9 275.387Z" fill="#FCCC00"/>
<path d="M750.139 275.461C750.187 275.461 750.235 275.457 750.283 275.453C750.283 275.453 750.275 275.444 750.267 275.44C750.227 275.448 750.187 275.453 750.139 275.461Z" fill="#FCCC00"/>
<path d="M750.411 275.444C750.538 275.435 750.673 275.426 750.801 275.422C750.689 275.422 750.578 275.413 750.466 275.409C750.419 275.418 750.371 275.426 750.323 275.431C750.355 275.431 750.387 275.439 750.419 275.444L750.411 275.444Z" fill="#FCCC00"/>
<path d="M750.147 275.409C750.147 275.409 750.203 275.418 750.235 275.422C750.227 275.413 750.219 275.409 750.203 275.4C750.187 275.4 750.179 275.4 750.163 275.4C750.163 275.4 750.147 275.409 750.139 275.413L750.147 275.409Z" fill="#FCCC00"/>
<path d="M750.147 275.361C750.147 275.361 750.171 275.379 750.187 275.387C750.514 275.205 750.85 275.019 751.177 274.837C750.913 274.941 750.65 275.05 750.395 275.154C750.307 275.218 750.227 275.288 750.139 275.357C750.139 275.357 750.139 275.357 750.147 275.361Z" fill="#FCCC00"/>
<path d="M750.139 275.353C750.139 275.353 750.108 275.379 750.084 275.396C750.084 275.396 750.084 275.396 750.092 275.396C750.116 275.396 750.139 275.396 750.163 275.396C750.163 275.396 750.179 275.388 750.187 275.383C750.171 275.375 750.163 275.366 750.147 275.357C750.147 275.357 750.147 275.357 750.139 275.353Z" fill="#FCCC00"/>
<path d="M750.139 275.353C750.227 275.284 750.307 275.219 750.394 275.149C750.307 275.184 750.219 275.219 750.131 275.258C750.116 275.275 750.1 275.292 750.084 275.31C750.1 275.323 750.124 275.335 750.139 275.348L750.139 275.353Z" fill="#FCCC00"/>
<path d="M749.94 275.513C749.94 275.513 749.924 275.513 749.924 275.518C749.916 275.531 749.9 275.543 749.892 275.556C749.892 275.556 749.9 275.552 749.908 275.548C749.924 275.539 749.932 275.526 749.948 275.518C749.948 275.518 749.948 275.518 749.948 275.513L749.94 275.513Z" fill="#FCCC00"/>
<path d="M749.988 275.5L749.988 275.495L749.98 275.5L749.988 275.5Z" fill="#FCCC00"/>
<path d="M749.964 275.504C749.964 275.504 749.964 275.504 749.964 275.509L749.98 275.499C749.98 275.499 749.964 275.499 749.956 275.504L749.964 275.504Z" fill="#FCCC00"/>
<path d="M749.948 275.508C749.948 275.508 749.948 275.512 749.94 275.517C749.94 275.517 749.94 275.522 749.94 275.526C749.948 275.522 749.956 275.517 749.964 275.512C749.964 275.512 749.964 275.512 749.964 275.508C749.964 275.508 749.956 275.508 749.948 275.508Z" fill="#FCCC00"/>
<path d="M749.9 275.548C749.9 275.548 749.932 275.531 749.939 275.527C749.939 275.527 749.939 275.522 749.939 275.518C749.924 275.527 749.916 275.539 749.9 275.548Z" fill="#FCCC00"/>
<path d="M750.02 275.487C750.02 275.487 750.004 275.487 749.996 275.491C749.996 275.491 749.996 275.491 750.004 275.496C750.411 275.712 750.818 275.929 751.225 276.146C751.025 276.003 750.834 275.86 750.634 275.712C750.427 275.634 750.227 275.561 750.02 275.483L750.02 275.487Z" fill="#FCCC00"/>
<path d="M750.012 275.486C750.012 275.486 750.004 275.491 749.996 275.496C749.996 275.496 750.012 275.496 750.02 275.491C750.02 275.491 750.02 275.491 750.012 275.491L750.012 275.486Z" fill="#FCCC00"/>
<path d="M750.02 275.487C750.227 275.565 750.426 275.639 750.633 275.717C750.57 275.669 750.506 275.622 750.434 275.574C750.307 275.544 750.171 275.509 750.044 275.479C750.036 275.479 750.02 275.483 750.012 275.487L750.02 275.487Z" fill="#FCCC00"/>
<path d="M749.996 275.496C749.996 275.496 749.988 275.491 749.98 275.487C749.98 275.487 749.98 275.496 749.988 275.5L749.996 275.496Z" fill="#FCCC00"/>
</mask>
<g mask="url(#mask0_2_253)">
<rect x="4.73186" width="1500" height="548" rx="37" fill="#9CB763"/>
</g>
</g>
</svg>
